<svg height="484pt" viewBox="-40 0 484 484.5156" width="484pt" xmlns="http://www.w3.org/2000/svg"><path d="m374.414062 480.515625h-344.3125c-14.273437 0-25.84375-11.570313-25.84375-25.84375v-51.230469c0-39.03125 31.636719-70.667968 70.664063-70.667968h254.667969c39.027344 0 70.664062 31.636718 70.664062 70.667968v51.230469c.003906 14.273437-11.566406 25.84375-25.839844 25.84375zm0 0" fill="#a4c9ff"/><path d="m374.414062 484.515625h-344.3125c-16.457031 0-29.84375-13.386719-29.84375-29.84375v-51.230469c0-41.171875 33.496094-74.667968 74.664063-74.667968h254.667969c41.171875 0 74.664062 33.496093 74.664062 74.667968v51.230469c.003906 16.453125-13.382812 29.84375-29.839844 29.84375zm-299.492187-147.742187c-36.757813 0-66.664063 29.90625-66.664063 66.667968v51.230469c0 12.042969 9.796876 21.84375 21.84375 21.84375h344.3125c12.042969 0 21.84375-9.796875 21.84375-21.84375v-51.230469c0-36.761718-29.90625-66.667968-66.664062-66.667968zm0 0" fill="#3762cc"/><path d="m64.898438 315.085938c-25.867188 0-46.835938-20.96875-46.835938-46.835938s20.96875-46.835938 46.835938-46.835938c25.867187 0 46.835937 20.96875 46.835937 46.835938s-20.96875 46.835938-46.835937 46.835938zm0 0" fill="#f9cfcf"/><path d="m339.617188 315.085938c-25.867188 0-46.835938-20.96875-46.835938-46.835938s20.96875-46.835938 46.835938-46.835938c25.867187 0 46.835937 20.96875 46.835937 46.835938s-20.96875 46.835938-46.835937 46.835938zm0 0" fill="#f9cfcf"/><path d="m64.898438 319.085938c-28.03125 0-50.835938-22.804688-50.835938-50.835938s22.804688-50.835938 50.835938-50.835938 50.835937 22.804688 50.835937 50.835938-22.804687 50.835938-50.835937 50.835938zm0-93.671876c-23.621094 0-42.835938 19.214844-42.835938 42.835938s19.214844 42.835938 42.835938 42.835938c23.621093 0 42.835937-19.214844 42.835937-42.835938s-19.214844-42.835938-42.835937-42.835938zm0 0" fill="#3762cc"/><path d="m339.617188 319.085938c-28.03125 0-50.835938-22.804688-50.835938-50.835938s22.804688-50.835938 50.835938-50.835938 50.835937 22.804688 50.835937 50.835938-22.804687 50.835938-50.835937 50.835938zm0-93.671876c-23.621094 0-42.835938 19.214844-42.835938 42.835938s19.214844 42.835938 42.835938 42.835938c23.621093 0 42.835937-19.214844 42.835937-42.835938s-19.214844-42.835938-42.835937-42.835938zm0 0" fill="#3762cc"/><path d="m202.257812 5.644531c-93.878906 0-169.980468 76.101563-169.980468 169.980469v41.121094c0 93.875 76.101562 169.980468 169.980468 169.980468 93.878907 0 169.980469-76.105468 169.980469-169.980468v-41.121094c0-93.878906-76.101562-169.980469-169.980469-169.980469zm0 0" fill="#f9cfcf"/><path d="m237.394531 434.695312h-70.273437c-24.878906 0-45.046875-20.167968-45.046875-45.046874v-69.839844h160.367187v69.839844c0 24.878906-20.167968 45.046874-45.046875 45.046874zm0 0" fill="#f9cfcf"/><path d="m237.320312 357.855469c-2.207031 0-4-1.792969-4-4 0-6.414063-14.546874-13.585938-34.019531-13.585938-19.472656 0-34.019531 7.171875-34.019531 13.585938 0 2.207031-1.792969 4-4 4-2.210938 0-4-1.792969-4-4 0-12.304688 18.0625-21.585938 42.019531-21.585938 23.953125 0 42.019531 9.28125 42.019531 21.585938 0 2.207031-1.789062 4-4 4zm0 0" fill="#3762cc"/><path d="m131.582031 316.714844c-7.519531 0-13.613281-6.097656-13.613281-13.617188v-22.691406c0-7.519531 6.09375-13.613281 13.613281-13.613281s13.613281 6.097656 13.613281 13.613281v22.691406c0 7.519532-6.09375 13.617188-13.613281 13.617188zm0 0" fill="#3762cc"/><path d="m272.933594 316.714844c-7.519532 0-13.613282-6.097656-13.613282-13.617188v-22.691406c0-7.519531 6.09375-13.613281 13.613282-13.613281 7.519531 0 13.613281 6.097656 13.613281 13.613281v22.691406c.003906 7.519532-6.09375 13.617188-13.613281 13.617188zm0 0" fill="#3762cc"/><path d="m202.257812 390.726562c-95.933593 0-173.980468-78.046874-173.980468-173.980468v-41.121094c0-95.933594 78.046875-173.980469 173.980468-173.980469 95.933594 0 173.980469 78.046875 173.980469 173.980469v41.121094c0 95.933594-78.046875 173.980468-173.980469 173.980468zm0-381.082031c-91.523437 0-165.980468 74.457031-165.980468 165.980469v41.121094c0 91.523437 74.457031 165.980468 165.980468 165.980468 91.523438 0 165.980469-74.457031 165.980469-165.980468v-41.121094c0-91.519531-74.457031-165.980469-165.980469-165.980469zm0 0" fill="#3762cc"/><path d="m132.289062 38.917969c.011719-.183594.046876-.359375.0625-.539063l.105469-9.300781c-.011719.003906-.023437.007813-.039062.011719l.097656-6.976563c.074219-5.707031-5.207031-10-10.765625-8.703125-18.945312 4.425782-58.695312 20.609375-87.839844 79.734375-.007812.015625-.015625.03125-.023437.050781-3.828125 7.511719-7.296875 15.925782-10.269531 25.375-3.722657 8.953126-6.246094 18.273438-7.488282 27.867188-4.230468 21.292969-5.207031 45.851562.5 72.695312 1.242188 7.570313 3.285156 14.957032 6.097656 22.113282 0 .007812.003907.015625.003907.023437 3.8125 9.707031 9.003906 18.992188 15.40625 27.75 13.210937-34.554687 45.65625-63.324219 88.488281-79.898437 3.363281-1.300782 5.558594-4.566406 5.558594-8.171875v-134.546875zm0 0" fill="#4671c6"/><path d="m388.386719 146.433594c-1.246094-9.589844-3.765625-18.910156-7.488281-27.863282-2.976563-9.449218-6.441407-17.863281-10.269532-25.375-.007812-.019531-.015625-.035156-.027344-.054687-28.933593-58.699219-68.296874-75.070313-87.390624-79.628906-5.550782-1.324219-10.882813 2.84375-10.882813 8.554687v158.878906c0 3.609376 2.195313 6.871094 5.558594 8.175782 42.832031 16.570312 75.277343 45.34375 88.488281 79.898437 6.402344-8.757812 11.59375-18.042969 15.40625-27.75 0-.007812.003906-.019531.003906-.023437 2.8125-7.15625 4.855469-14.542969 6.097656-22.113282 5.703126-26.847656 4.730469-51.40625.503907-72.699218zm0 0" fill="#4671c6"/><path d="m38.136719 273.019531c-1.261719 0-2.46875-.605469-3.226563-1.640625-6.660156-9.105468-12.007812-18.746094-15.898437-28.648437-.007813-.023438-.019531-.042969-.027344-.066407-2.910156-7.421874-5.027344-15.121093-6.300781-22.878906-5.195313-24.421875-5.375-49.378906-.503906-73.996094 1.277343-9.75 3.859374-19.367187 7.675781-28.585937 2.910156-9.214844 6.429687-17.898437 10.464843-25.820313 29.429688-59.710937 69.347657-76.921874 90.523438-81.863281 3.839844-.898437 7.808594.007813 10.886719 2.480469 3.09375 2.488281 4.835937 6.195312 4.785156 10.167969l-.085937 6.414062c.019531.179688.03125.363281.03125.542969l-.105469 9.296875c0 .097656-.007813.191406-.015625.28125-.011719.15625-.03125.3125-.054688.464844l-.097656 7.289062v134.492188c0 5.238281-3.261719 10.023437-8.117188 11.902343-42.160156 16.3125-73.578124 44.59375-86.195312 77.59375-.523438 1.371094-1.75 2.34375-3.207031 2.539063-.175781.019531-.355469.035156-.53125.035156zm-11.648438-33.140625c2.808594 7.128906 6.429688 14.125 10.808594 20.871094 14.917969-32.144531 46.519531-59.355469 87.886719-75.359375 1.796875-.695313 3.003906-2.480469 3.003906-4.445313v-134.542968l.097656-7.539063c0-.066406.003906-.132812.007813-.203125.011719-.1875.035156-.371094.0625-.550781l.09375-8.515625c-.023438-.183594-.035157-.367188-.03125-.554688l.09375-6.980468c.019531-1.496094-.632813-2.886719-1.796875-3.824219-1.148438-.925781-2.628906-1.265625-4.058594-.929687-19.796875 4.625-57.1875 20.855468-85.160156 77.605468-.03125.066406-.089844.183594-.125.246094-3.785156 7.429688-7.152344 15.761719-9.9375 24.617188-.039063.113281-.078125.222656-.125.332031-3.597656 8.660156-6.027344 17.691406-7.210938 26.84375-.015625.089843-.027344.175781-.042968.265625-4.6875 23.589844-4.519532 47.507812.488281 71.085937 1.222656 7.40625 3.195312 14.574219 5.910156 21.484375.011719.027344.023437.0625.035156.09375zm0 0" fill="#3762cc"/><path d="m366.378906 273.019531c-.175781 0-.355468-.015625-.53125-.039062-1.453125-.195313-2.683594-1.167969-3.207031-2.535157-12.617187-33-44.035156-61.285156-86.195313-77.597656-4.859374-1.878906-8.117187-6.660156-8.117187-11.902344v-158.878906c0-3.941406 1.773437-7.601562 4.863281-10.039062 3.101563-2.453125 7.089844-3.328125 10.949219-2.40625 21.0625 5.03125 60.765625 22.34375 90.050781 81.753906 4.035156 7.925781 7.558594 16.609375 10.464844 25.824219 3.820312 9.21875 6.402344 18.835937 7.675781 28.585937 4.871094 24.617188 4.691407 49.574219-.535156 74.179688-1.238281 7.566406-3.355469 15.25-6.257813 22.660156-.011718.035156-.023437.070312-.039062.105469-3.890625 9.902343-9.238281 19.542969-15.898438 28.648437-.753906 1.035156-1.960937 1.640625-3.222656 1.640625zm-85.242187-255.75c-1.078125 0-2.125.359375-2.988281 1.039063-1.15625.914062-1.820313 2.285156-1.820313 3.761718v158.878907c0 1.960937 1.207031 3.746093 3.003906 4.441406 41.367188 16.003906 72.96875 43.214844 87.886719 75.359375 4.382812-6.753906 8.011719-13.761719 10.820312-20.902344.007813-.023437.015626-.042968.023438-.058594 2.714844-6.910156 4.6875-14.078124 5.875-21.300781 5.042969-23.765625 5.207031-47.683593.523438-71.273437-.015626-.085938-.03125-.175782-.042969-.265625-1.183594-9.148438-3.613281-18.179688-7.210938-26.839844-.046875-.113281-.085937-.222656-.125-.335937-2.785156-8.855469-6.15625-17.1875-10.015625-24.761719-27.886718-56.574219-65.085937-72.898438-84.78125-77.605469-.382812-.09375-.765625-.136719-1.148437-.136719zm100.644531 224h.019531zm0 0" fill="#3762cc"/><g fill="#f9a7a7"><path d="m150.644531 37.628906c-2.449219 0-4.4375-2.6875-4.4375-6v-12c0-2.269531.945313-4.347656 2.445313-5.367187.132812-.085938 3.261718-2.195313 8.769531-4.773438 2.320313-1.078125 4.847656.574219 5.648437 3.707031.800782 3.128907-.425781 6.546876-2.742187 7.632813-2.191406 1.027344-3.957031 1.964844-5.246094 2.691406v8.109375c0 3.316406-1.984375 6-4.4375 6zm0 0"/><path d="m150.644531 160.847656c-2.449219 0-4.4375-2.683594-4.4375-6v-20.535156c0-3.316406 1.988281-6 4.4375-6 2.453125 0 4.441407 2.683594 4.441407 6v20.535156c-.003907 3.316406-1.988282 6-4.441407 6zm0-41.070312c-2.449219 0-4.4375-2.6875-4.4375-6v-20.539063c0-3.3125 1.988281-6 4.4375-6 2.453125 0 4.441407 2.6875 4.441407 6v20.539063c-.003907 3.3125-1.988282 6-4.441407 6zm0-41.074219c-2.449219 0-4.4375-2.683594-4.4375-6v-20.539063c0-3.3125 1.988281-6 4.4375-6 2.453125 0 4.441407 2.6875 4.441407 6v20.539063c-.003907 3.316406-1.988282 6-4.441407 6zm0 0"/><path d="m150.644531 193.382812c-1.082031 0-2.136719-.539062-2.953125-1.523437-.945312-1.136719-1.484375-2.765625-1.484375-4.476563v-12c0-3.3125 1.988281-6 4.4375-6 2.453125 0 4.441407 2.6875 4.441407 6v5.378907c1.160156-.136719 2.511718-.292969 4.046874-.457031 2.433594-.261719 4.582032 2.207031 4.773438 5.507812.195312 3.304688-1.628906 6.195312-4.074219 6.457031-5.5.585938-8.648437 1.070313-8.679687 1.074219-.171875.027344-.339844.039062-.507813.039062zm0 0"/><path d="m176.546875 190.875c-2.359375 0-4.324219-2.511719-4.433594-5.730469-.109375-3.308593 1.785157-6.113281 4.234375-6.265625 5.671875-.34375 11.46875-.582031 17.230469-.699218h.066406c2.421875 0 4.402344 2.625 4.4375 5.910156.035157 3.3125-1.921875 6.039062-4.371093 6.089844-5.671876.117187-11.378907.347656-16.964844.6875-.0625.003906-.132813.007812-.199219.007812zm51.300781-.003906c-.070312 0-.136718-.003906-.207031-.007813-5.558594-.34375-11.265625-.578125-16.953125-.691406-2.453125-.046875-4.410156-2.773437-4.375-6.085937.035156-3.285157 2.015625-5.914063 4.433594-5.914063h.066406c5.789062.117187 11.585938.351563 17.238281.703125 2.445313.152344 4.339844 2.957031 4.230469 6.269531-.113281 3.21875-2.074219 5.726563-4.433594 5.726563zm0 0"/><path d="m253.769531 193.382812c-.144531 0-.292969-.007812-.4375-.027343-2.945312-.394531-5.867187-.746094-8.761719-1.058594-2.445312-.265625-4.265624-3.15625-4.070312-6.460937.195312-3.300782 2.34375-5.789063 4.78125-5.5 1.34375.144531 2.691406.296874 4.046875.460937v-5.414063c0-3.3125 1.988281-6 4.441406-6s4.441407 2.6875 4.441407 6v12c0 1.695313-.53125 3.308594-1.460938 4.445313-.820312 1.007813-1.886719 1.554687-2.980469 1.554687zm0 0"/><path d="m253.769531 160.847656c-2.453125 0-4.441406-2.683594-4.441406-6v-20.535156c0-3.316406 1.988281-6 4.441406-6 2.449219 0 4.4375 2.683594 4.4375 6v20.535156c0 3.316406-1.988281 6-4.4375 6zm0-41.070312c-2.453125 0-4.441406-2.6875-4.441406-6v-20.539063c0-3.3125 1.988281-6 4.441406-6 2.449219 0 4.4375 2.6875 4.4375 6v20.539063c0 3.3125-1.988281 6-4.4375 6zm0-41.074219c-2.453125 0-4.441406-2.683594-4.441406-6v-20.539063c0-3.3125 1.988281-6 4.441406-6 2.449219 0 4.4375 2.6875 4.4375 6v20.539063c0 3.316406-1.988281 6-4.4375 6zm0 0"/><path d="m253.769531 37.628906c-2.453125 0-4.441406-2.6875-4.441406-6v-7.929687c-1.765625-.921875-3.539063-1.792969-5.300781-2.59375-2.320313-1.0625-3.566406-4.46875-2.78125-7.609375.789062-3.140625 3.3125-4.820313 5.628906-3.761719 2.855469 1.308594 5.742188 2.769531 8.578125 4.34375 1.667969.921875 2.753906 3.117187 2.753906 5.550781v12c0 3.316406-1.988281 6-4.4375 6zm0 0"/><path d="m228.445312 15.230469c-.292968 0-.585937-.039063-.878906-.121094-5.5625-1.515625-11.242187-2.542969-16.878906-3.058594-2.449219-.226562-4.296875-3.085937-4.128906-6.394531.164062-3.304688 2.289062-5.8125 4.730468-5.578125 6.023438.550781 12.089844 1.652344 18.027344 3.265625 2.40625.65625 3.960938 3.820312 3.476563 7.066406-.425781 2.851563-2.277344 4.820313-4.347657 4.820313zm-52.546874-.207031c-2.082032 0-3.9375-1.988282-4.351563-4.855469-.46875-3.253907 1.105469-6.402344 3.511719-7.035157 5.929687-1.5625 12-2.609374 18.042968-3.1210932 2.433594-.2031248 4.550782 2.3046872 4.707032 5.6171872.152344 3.304688-1.707032 6.152344-4.15625 6.359375-5.660156.476563-11.34375 1.460938-16.898438 2.921875-.289062.074219-.570312.113282-.855468.113282zm0 0"/></g></svg>